<svg xmlns="http://www.w3.org/2000/svg" xmlns:xlink="http://www.w3.org/1999/xlink" width="2000" zoomAndPan="magnify" viewBox="0 0 1500 1499.999933" height="2000" preserveAspectRatio="xMidYMid meet" version="1.0"><defs><g/><clipPath id="be8121e569"><path d="M 553 436.234375 L 947 436.234375 L 947 831.484375 L 553 831.484375 Z M 553 436.234375 " clip-rule="nonzero"/></clipPath><clipPath id="c5aaaaee0b"><rect x="0" width="877" y="0" height="137"/></clipPath></defs><g clip-path="url(#be8121e569)"><path fill="#1bcbff" d="M 886.519531 501.957031 C 886.519531 501.957031 904.449219 515.742188 930.160156 517.816406 C 933.0625 518.023438 934.511719 521.339844 932.644531 523.621094 C 924.457031 533.574219 902.792969 552.128906 863.089844 537.511719 C 863.089844 537.511719 876.359375 554.511719 891.597656 562.390625 C 894.085938 563.738281 894.085938 567.261719 891.597656 568.609375 C 878.433594 575.660156 846.816406 587.890625 825.875 558.449219 C 825.875 558.449219 802.449219 593.902344 763.785156 563.324219 L 763.785156 818.015625 C 763.785156 823.199219 760.777344 827.65625 756.425781 829.832031 C 754.558594 830.765625 752.484375 831.179688 750.203125 831.179688 C 743.050781 830.972656 737.453125 824.859375 737.453125 817.601562 L 737.453125 563.21875 L 736.003906 563.21875 C 697.234375 593.902344 673.910156 558.347656 673.910156 558.347656 C 652.972656 587.683594 621.457031 575.449219 608.191406 568.503906 C 605.703125 567.160156 605.703125 563.53125 608.191406 562.285156 C 623.53125 554.40625 636.695312 537.40625 636.695312 537.40625 C 597.097656 552.023438 575.433594 533.46875 567.246094 523.621094 C 565.378906 521.445312 566.828125 518.128906 569.730469 517.816406 C 595.441406 515.742188 613.375 501.957031 613.375 501.957031 C 568.800781 505.6875 556.671875 479.253906 553.457031 467.230469 C 552.730469 464.636719 555.011719 462.253906 557.605469 462.875 C 574.914062 466.609375 596.164062 466.296875 618.660156 463.914062 C 629.648438 462.773438 640.84375 461.113281 652.140625 459.144531 C 702.933594 450.230469 706.253906 523.726562 736.105469 523.726562 L 737.558594 523.726562 L 737.558594 499.054688 C 725.015625 493.558594 716.617188 480.292969 718.277344 465.261719 C 720.039062 450.230469 732.269531 438.203125 747.300781 436.753906 C 752.070312 436.234375 756.734375 436.855469 760.984375 438.203125 C 773.941406 442.558594 783.375 454.789062 783.375 469.199219 C 783.375 482.570312 775.394531 493.972656 763.886719 499.054688 L 763.886719 523.726562 C 793.742188 523.726562 796.957031 450.332031 847.851562 459.144531 C 882.269531 465.15625 916.683594 468.371094 942.390625 462.875 C 944.980469 462.359375 947.261719 464.742188 946.535156 467.230469 C 943.21875 479.152344 931.089844 505.6875 886.519531 501.957031 Z M 886.519531 501.957031 " fill-opacity="1" fill-rule="nonzero"/></g><path fill="#2720ff" d="M 861.742188 600.433594 C 861.742188 540.726562 813.539062 534.921875 795.503906 544.664062 C 792.289062 546.425781 790.113281 548.601562 789.285156 551.089844 C 783.789062 567.574219 791.980469 593.175781 822.25 596.804688 C 822.25 596.804688 841.738281 624.378906 750.722656 641.066406 C 659.710938 624.480469 679.199219 596.804688 679.199219 596.804688 C 709.363281 593.175781 717.65625 567.574219 712.160156 551.089844 C 711.746094 549.742188 710.917969 548.5 709.671875 547.359375 C 696.300781 534.402344 639.703125 535.644531 639.703125 600.433594 C 639.703125 631.011719 662.507812 647.289062 691.222656 657.757812 C 662.40625 672.167969 656.183594 692.277344 661.679688 712.90625 C 664.890625 725.03125 680.753906 741.617188 714.128906 753.953125 C 706.460938 759.136719 701.070312 765.355469 699.410156 773.339844 C 695.992188 789.507812 703.972656 801.015625 710.710938 807.441406 C 712.472656 809.101562 715.269531 807.441406 714.648438 805.058594 C 714.648438 804.953125 714.546875 804.851562 714.546875 804.644531 C 711.019531 790.339844 721.699219 775.515625 750.828125 765.046875 C 780.371094 775.617188 790.941406 790.648438 787.003906 805.058594 C 786.382812 807.339844 789.285156 808.996094 790.941406 807.339844 C 797.679688 800.910156 805.664062 789.40625 802.242188 773.234375 C 800.582031 765.355469 795.089844 759.136719 787.523438 753.851562 C 820.902344 741.617188 836.761719 724.929688 839.972656 712.800781 C 845.46875 692.070312 839.25 672.0625 810.429688 657.652344 C 839.042969 647.390625 861.742188 631.117188 861.742188 600.433594 Z M 808.046875 702.019531 C 808.046875 720.265625 778.917969 728.246094 750.621094 737.78125 C 722.421875 728.246094 693.191406 720.265625 693.191406 702.019531 C 693.191406 686.054688 719.105469 679.734375 750.621094 672.996094 C 782.132812 679.734375 808.046875 685.953125 808.046875 702.019531 Z M 808.046875 702.019531 " fill-opacity="1" fill-rule="nonzero"/><path fill="#2720ff" d="M 787.316406 753.953125 C 780.886719 756.339844 773.734375 758.515625 765.960938 760.484375 C 760.363281 761.9375 755.285156 763.492188 750.621094 765.148438 C 745.953125 763.492188 740.875 761.9375 735.277344 760.484375 C 727.503906 758.515625 720.351562 756.339844 713.921875 753.953125 C 723.667969 747.320312 737.039062 742.34375 750.621094 737.679688 C 764.199219 742.34375 777.570312 747.320312 787.316406 753.953125 Z M 757.460938 642.207031 C 755.078125 641.792969 752.898438 641.378906 750.722656 641.066406 C 748.546875 641.484375 746.265625 641.898438 743.984375 642.207031 C 721.285156 645.941406 704.074219 651.332031 691.222656 657.757812 C 710.089844 664.597656 731.441406 668.847656 750.722656 672.996094 C 770.003906 668.847656 791.460938 664.597656 810.222656 657.757812 C 797.472656 651.332031 780.164062 646.042969 757.460938 642.207031 Z M 757.460938 642.207031 " fill-opacity="1" fill-rule="nonzero"/><path fill="#b0c5ff" d="M 677.332031 566.949219 C 674.84375 566.949219 672.5625 565.394531 671.628906 563.117188 C 670.695312 560.730469 671.421875 558.035156 673.390625 556.378906 C 675.363281 554.617188 678.367188 554.511719 680.542969 555.859375 C 682.617188 557.207031 683.757812 559.695312 683.238281 562.183594 C 682.722656 564.878906 680.234375 566.949219 677.332031 566.949219 Z M 828.46875 562.183594 C 828.984375 559.695312 827.949219 557.101562 825.773438 555.753906 C 823.597656 554.40625 820.695312 554.511719 818.722656 556.171875 C 816.753906 557.726562 816.027344 560.523438 816.859375 562.90625 C 817.6875 565.292969 820.070312 566.949219 822.558594 566.949219 C 825.359375 566.949219 827.847656 564.878906 828.46875 562.183594 Z M 828.46875 562.183594 " fill-opacity="1" fill-rule="nonzero"/><g transform="matrix(1, 0, 0, 1, 313, 927)"><g clip-path="url(#c5aaaaee0b)"><g fill="#000000" fill-opacity="1"><g transform="translate(3.9336, 99.964462)"><g><path d="M 59.625 0 L 54.453125 -15.8125 L 23.09375 -15.8125 L 17.921875 0 L -1.8125 0 L 28.421875 -83.984375 L 49.140625 -83.984375 L 79.375 0 Z M 28 -31.21875 L 49.546875 -31.21875 L 38.78125 -64.53125 Z M 28 -31.21875 "/></g></g></g><g fill="#000000" fill-opacity="1"><g transform="translate(81.482835, 99.964462)"><g><path d="M 60.046875 -83.984375 L 60.046875 -67.609375 L 38.921875 -67.609375 L 38.921875 0 L 20.578125 0 L 20.578125 -67.609375 L -0.703125 -67.609375 L -0.703125 -83.984375 Z M 60.046875 -83.984375 "/></g></g></g><g fill="#000000" fill-opacity="1"><g transform="translate(140.834589, 99.964462)"><g><path d="M 26.734375 -16.375 L 54.59375 -16.375 L 54.59375 0 L 8.265625 0 L 8.265625 -83.984375 L 26.734375 -83.984375 Z M 26.734375 -16.375 "/></g></g></g><g fill="#000000" fill-opacity="1"><g transform="translate(195.706946, 99.964462)"><g><path d="M 59.625 0 L 54.453125 -15.8125 L 23.09375 -15.8125 L 17.921875 0 L -1.8125 0 L 28.421875 -83.984375 L 49.140625 -83.984375 L 79.375 0 Z M 28 -31.21875 L 49.546875 -31.21875 L 38.78125 -64.53125 Z M 28 -31.21875 "/></g></g></g><g fill="#000000" fill-opacity="1"><g transform="translate(273.25618, 99.964462)"><g><path d="M 34.15625 1.125 C 26.78125 1.125 20.289062 -0.691406 14.6875 -4.328125 C 9.09375 -7.972656 4.941406 -12.410156 2.234375 -17.640625 L 17.5 -27.15625 C 19.082031 -23.882812 21.320312 -21.242188 24.21875 -19.234375 C 27.113281 -17.234375 30.472656 -16.234375 34.296875 -16.234375 C 37.554688 -16.234375 40.097656 -16.929688 41.921875 -18.328125 C 43.742188 -19.734375 44.65625 -21.601562 44.65625 -23.9375 C 44.65625 -26.363281 43.71875 -28.320312 41.84375 -29.8125 C 39.976562 -31.3125 37.578125 -32.570312 34.640625 -33.59375 C 31.703125 -34.625 28.578125 -35.722656 25.265625 -36.890625 C 21.953125 -38.054688 18.828125 -39.570312 15.890625 -41.4375 C 12.953125 -43.300781 10.546875 -45.722656 8.671875 -48.703125 C 6.804688 -51.691406 5.875 -55.566406 5.875 -60.328125 C 5.875 -65.929688 7.179688 -70.550781 9.796875 -74.1875 C 12.410156 -77.832031 15.789062 -80.5625 19.9375 -82.375 C 24.09375 -84.195312 28.363281 -85.109375 32.75 -85.109375 C 37.976562 -85.109375 42.832031 -84.007812 47.3125 -81.8125 C 51.789062 -79.625 55.570312 -76.753906 58.65625 -73.203125 L 46.328125 -61.453125 C 44.273438 -63.785156 42.082031 -65.582031 39.75 -66.84375 C 37.414062 -68.101562 35.035156 -68.734375 32.609375 -68.734375 C 30.367188 -68.734375 28.457031 -68.171875 26.875 -67.046875 C 25.289062 -65.929688 24.5 -64.160156 24.5 -61.734375 C 24.5 -59.304688 25.429688 -57.390625 27.296875 -55.984375 C 29.160156 -54.585938 31.5625 -53.375 34.5 -52.34375 C 37.445312 -51.320312 40.550781 -50.203125 43.8125 -48.984375 C 47.082031 -47.773438 50.1875 -46.191406 53.125 -44.234375 C 56.0625 -42.273438 58.460938 -39.6875 60.328125 -36.46875 C 62.191406 -33.25 63.125 -29.023438 63.125 -23.796875 C 63.125 -18.566406 61.796875 -14.085938 59.140625 -10.359375 C 56.484375 -6.628906 52.960938 -3.78125 48.578125 -1.8125 C 44.191406 0.144531 39.382812 1.125 34.15625 1.125 Z M 34.15625 1.125 "/></g></g></g><g fill="#000000" fill-opacity="1"><g transform="translate(339.606958, 99.964462)"><g/></g></g><g fill="#000000" fill-opacity="1"><g transform="translate(373.202277, 99.964462)"><g><path d="M 43.953125 -83.984375 C 48.710938 -83.984375 52.984375 -82.835938 56.765625 -80.546875 C 60.546875 -78.265625 63.53125 -75.210938 65.71875 -71.390625 C 67.914062 -67.566406 69.015625 -63.320312 69.015625 -58.65625 C 69.015625 -53.988281 67.914062 -49.785156 65.71875 -46.046875 C 63.53125 -42.316406 60.546875 -39.378906 56.765625 -37.234375 C 52.984375 -35.085938 48.710938 -34.015625 43.953125 -34.015625 L 26.734375 -34.015625 L 26.734375 0 L 8.265625 0 L 8.265625 -83.984375 Z M 41.015625 -49.265625 C 44.003906 -49.265625 46.476562 -50.101562 48.4375 -51.78125 C 50.394531 -53.46875 51.375 -55.710938 51.375 -58.515625 C 51.375 -61.222656 50.394531 -63.4375 48.4375 -65.15625 C 46.476562 -66.882812 44.003906 -67.75 41.015625 -67.75 L 26.734375 -67.75 L 26.734375 -49.265625 Z M 41.015625 -49.265625 "/></g></g></g><g fill="#000000" fill-opacity="1"><g transform="translate(442.772598, 99.964462)"><g><path d="M 60.890625 -83.984375 L 79.234375 -83.984375 L 79.234375 0 L 60.890625 0 L 60.890625 -33.875 L 26.734375 -33.875 L 26.734375 0 L 8.265625 0 L 8.265625 -83.984375 L 26.734375 -83.984375 L 26.734375 -50.25 L 60.890625 -50.25 Z M 60.890625 -83.984375 "/></g></g></g><g fill="#000000" fill-opacity="1"><g transform="translate(530.400413, 99.964462)"><g><path d="M 59.625 0 L 54.453125 -15.8125 L 23.09375 -15.8125 L 17.921875 0 L -1.8125 0 L 28.421875 -83.984375 L 49.140625 -83.984375 L 79.375 0 Z M 28 -31.21875 L 49.546875 -31.21875 L 38.78125 -64.53125 Z M 28 -31.21875 "/></g></g></g><g fill="#000000" fill-opacity="1"><g transform="translate(607.949647, 99.964462)"><g><path d="M 52.078125 -34.578125 L 75.59375 0 L 54.875 0 L 34.15625 -32.46875 L 26.734375 -32.46875 L 26.734375 0 L 8.265625 0 L 8.265625 -83.984375 L 43.953125 -83.984375 C 48.804688 -83.984375 53.097656 -82.835938 56.828125 -80.546875 C 60.566406 -78.265625 63.53125 -75.164062 65.71875 -71.25 C 67.914062 -67.332031 69.015625 -62.992188 69.015625 -58.234375 C 69.015625 -52.535156 67.425781 -47.539062 64.25 -43.25 C 61.070312 -38.957031 57.015625 -36.066406 52.078125 -34.578125 Z M 41.15625 -47.734375 C 44.144531 -47.734375 46.59375 -48.664062 48.5 -50.53125 C 50.414062 -52.394531 51.375 -54.773438 51.375 -57.671875 C 51.375 -60.566406 50.414062 -62.945312 48.5 -64.8125 C 46.59375 -66.675781 44.144531 -67.609375 41.15625 -67.609375 L 26.734375 -67.609375 L 26.734375 -47.734375 Z M 41.15625 -47.734375 "/></g></g></g><g fill="#000000" fill-opacity="1"><g transform="translate(682.839229, 99.964462)"><g><path d="M 81.46875 -83.984375 L 101.34375 -83.984375 L 101.34375 0 L 82.875 0 L 82.875 -49.96875 L 60.046875 0 L 49.40625 0 L 26.734375 -50.109375 L 26.734375 0 L 8.265625 0 L 8.265625 -83.984375 L 28.28125 -83.984375 L 54.734375 -25.890625 Z M 81.46875 -83.984375 "/></g></g></g><g fill="#000000" fill-opacity="1"><g transform="translate(792.444, 99.964462)"><g><path d="M 59.625 0 L 54.453125 -15.8125 L 23.09375 -15.8125 L 17.921875 0 L -1.8125 0 L 28.421875 -83.984375 L 49.140625 -83.984375 L 79.375 0 Z M 28 -31.21875 L 49.546875 -31.21875 L 38.78125 -64.53125 Z M 28 -31.21875 "/></g></g></g></g></g></svg>